{
  "accessors": [
    {
      "bufferView": 2,
      "componentType": 5126,
      "count": 1363,
      "max": [
        0.25277116894721985,
        0.19235862791538239,
        3.2758686542510986
      ],
      "min": [
        -0.3037567138671875,
        -0.19235862791538239,
        -1.1991238594055176
      ],
      "type": "VEC3"
    },
    {
      "bufferView": 2,
      "byteOffset": 16356,
      "componentType": 5126,
      "count": 1363,
      "max": [
        0.9999485015869141,
        1.0,
        0.9999993443489075
      ],
      "min": [
        -0.9999495148658752,
        -0.9999721050262451,
        -0.9999687671661377
      ],
      "type": "VEC3"
    },
    {
      "bufferView": 3,
      "componentType": 5126,
      "count": 1363,
      "max": [
        0.9999983310699463,
        1.0,
        0.9977450966835022,
        1.0
      ],
      "min": [
        -0.9996960163116455,
        -1.0,
        -0.9798102974891663,
        -1.0
      ],
      "type": "VEC4"
    },
    {
      "bufferView": 1,
      "componentType": 5126,
      "count": 1363,
      "max": [
        0.9841866493225098,
        0.9788920283317566
      ],
      "min": [
        0.028426051139831543,
        0.027756989002227783
      ],
      "type": "VEC2"
    },
    {
      "bufferView": 0,
      "componentType": 5125,
      "count": 5172,
      "type": "SCALAR"
    },
    {
      "bufferView": 2,
      "byteOffset": 32712,
      "componentType": 5126,
      "count": 1314,
      "max": [
        -0.023072943091392517,
        0.12380512803792953,
        -1.8032722473144531
      ],
      "min": [
        -0.5007193088531494,
        -0.12380511313676834,
        -2.6531879901885986
      ],
      "type": "VEC3"
    },
    {
      "bufferView": 2,
      "byteOffset": 48480,
      "componentType": 5126,
      "count": 1314,
      "max": [
        0.9968995451927185,
        1.0,
        0.9248577356338501
      ],
      "min": [
        -0.9513042569160461,
        -1.0,
        -0.9248548150062561
      ],
      "type": "VEC3"
    },
    {
      "bufferView": 3,
      "byteOffset": 21808,
      "componentType": 5126,
      "count": 1314,
      "max": [
        0.9779393672943115,
        0.9999989867210388,
        0.9247512817382813,
        1.0
      ],
      "min": [
        -0.7484757900238037,
        -0.9999990463256836,
        -0.9999669790267944,
        1.0
      ],
      "type": "VEC4"
    },
    {
      "bufferView": 1,
      "byteOffset": 10904,
      "componentType": 5126,
      "count": 1314,
      "max": [
        0.9068180322647095,
        0.9781497716903687
      ],
      "min": [
        0.020256847143173218,
        0.02185031771659851
      ],
      "type": "VEC2"
    },
    {
      "bufferView": 0,
      "byteOffset": 20688,
      "componentType": 5125,
      "count": 2520,
      "type": "SCALAR"
    },
    {
      "bufferView": 2,
      "byteOffset": 64248,
      "componentType": 5126,
      "count": 439,
      "max": [
        -0.28178679943084717,
        0.1548016518354416,
        -2.5143845081329346
      ],
      "min": [
        -0.6428342461585999,
        -0.1548016518354416,
        -3.0343263149261475
      ],
      "type": "VEC3"
    },
    {
      "bufferView": 2,
      "byteOffset": 69516,
      "componentType": 5126,
      "count": 439,
      "max": [
        0.9998791813850403,
        0.9999992847442627,
        0.979272723197937
      ],
      "min": [
        -0.9989475011825562,
        -0.9999993443489075,
        -0.9725688099861145
      ],
      "type": "VEC3"
    },
    {
      "bufferView": 3,
      "byteOffset": 42832,
      "componentType": 5126,
      "count": 439,
      "max": [
        0.9996476173400879,
        0.09295222163200378,
        0.9997236728668213,
        1.0
      ],
      "min": [
        -0.9991520047187805,
        -0.08910970389842987,
        -0.9999914765357971,
        1.0
      ],
      "type": "VEC4"
    },
    {
      "bufferView": 1,
      "byteOffset": 21416,
      "componentType": 5126,
      "count": 439,
      "max": [
        1.0000001192092896,
        1.0
      ],
      "min": [
        0.0,
        0.0
      ],
      "type": "VEC2"
    },
    {
      "bufferView": 0,
      "byteOffset": 30768,
      "componentType": 5125,
      "count": 2280,
      "type": "SCALAR"
    },
    {
      "bufferView": 2,
      "byteOffset": 74784,
      "componentType": 5126,
      "count": 1336,
      "max": [
        0.2381080687046051,
        0.036460183560848236,
        -0.8587749004364014
      ],
      "min": [
        -1.2618412971496582,
        -0.036460183560848236,
        -4.420260429382324
      ],
      "type": "VEC3"
    },
    {
      "bufferView": 2,
      "byteOffset": 90816,
      "componentType": 5126,
      "count": 1336,
      "max": [
        0.9999280571937561,
        1.0,
        1.0
      ],
      "min": [
        -0.9999551177024841,
        -1.0,
        -0.9993979930877686
      ],
      "type": "VEC3"
    },
    {
      "bufferView": 3,
      "byteOffset": 49856,
      "componentType": 5126,
      "count": 1336,
      "max": [
        1.0,
        1.0,
        0.7041918635368347,
        1.0
      ],
      "min": [
        -0.9993979930877686,
        -1.0,
        -0.7066716551780701,
        -1.0
      ],
      "type": "VEC4"
    },
    {
      "bufferView": 1,
      "byteOffset": 24928,
      "componentType": 5126,
      "count": 1336,
      "max": [
        0.9788962602615356,
        0.9818874597549438
      ],
      "min": [
        0.035121917724609375,
        0.03489100933074951
      ],
      "type": "VEC2"
    },
    {
      "bufferView": 0,
      "byteOffset": 39888,
      "componentType": 5125,
      "count": 3240,
      "type": "SCALAR"
    },
    {
      "bufferView": 2,
      "byteOffset": 106848,
      "componentType": 5126,
      "count": 4392,
      "max": [
        0.247299924492836,
        0.221029594540596,
        3.2730345726013184
      ],
      "min": [
        -0.3165038228034973,
        -0.22102954983711243,
        -2.62082576751709
      ],
      "type": "VEC3"
    },
    {
      "bufferView": 2,
      "byteOffset": 159552,
      "componentType": 5126,
      "count": 4392,
      "max": [
        0.999993085861206,
        0.9999720454216003,
        0.9998948574066162
      ],
      "min": [
        -1.0,
        -0.9999721050262451,
        -0.9995543360710144
      ],
      "type": "VEC3"
    },
    {
      "bufferView": 3,
      "byteOffset": 71232,
      "componentType": 5126,
      "count": 4392,
      "max": [
        0.9974410533905029,
        0.9999992847442627,
        0.999988317489624,
        1.0
      ],
      "min": [
        -0.9974665641784668,
        -0.9999463558197021,
        -0.9999951124191284,
        -1.0
      ],
      "type": "VEC4"
    },
    {
      "bufferView": 1,
      "byteOffset": 35616,
      "componentType": 5126,
      "count": 4392,
      "max": [
        0.970328688621521,
        0.9980080127716064
      ],
      "min": [
        0.0019367784261703491,
        0.0019920445047318935
      ],
      "type": "VEC2"
    },
    {
      "bufferView": 0,
      "byteOffset": 52848,
      "componentType": 5125,
      "count": 22080,
      "type": "SCALAR"
    }
  ],
  "asset": {
    "extras": {
      "author": "Brock Billings (https://sketchfab.com/Brock.Billings)",
      "license": "CC-BY-4.0 (http://creativecommons.org/licenses/by/4.0/)",
      "source": "https://sketchfab.com/3d-models/marvels-avengers-lokis-scepter-5cda736d9ece40b4a79b4bc9a0dd17e7",
      "title": "Marvel's Avengers - Loki's Scepter"
    },
    "generator": "Sketchfab-12.66.0",
    "version": "2.0"
  },
  "bufferViews": [
    {
      "buffer": 0,
      "byteLength": 141168,
      "name": "floatBufferViews",
      "target": 34963
    },
    {
      "buffer": 0,
      "byteLength": 70752,
      "byteOffset": 141168,
      "byteStride": 8,
      "name": "floatBufferViews",
      "target": 34962
    },
    {
      "buffer": 0,
      "byteLength": 212256,
      "byteOffset": 211920,
      "byteStride": 12,
      "name": "floatBufferViews",
      "target": 34962
    },
    {
      "buffer": 0,
      "byteLength": 141504,
      "byteOffset": 424176,
      "byteStride": 16,
      "name": "floatBufferViews",
      "target": 34962
    }
  ],
  "buffers": [
    {
      "byteLength": 565680,
      "uri": "scene.bin"
    }
  ],
  "images": [
    {
      "uri": "textures/Scepter_Extra_baseColor.png"
    },
    {
      "uri": "textures/Scepter_Extra_metallicRoughness.png"
    },
    {
      "uri": "textures/Scepter_Extra_normal.png"
    },
    {
      "uri": "textures/Scepter_Container_baseColor.png"
    },
    {
      "uri": "textures/Scepter_Container_metallicRoughness.png"
    },
    {
      "uri": "textures/Scepter_Container_normal.png"
    },
    {
      "uri": "textures/Scepter_Gem_baseColor.png"
    },
    {
      "uri": "textures/Scepter_Gem_metallicRoughness.png"
    },
    {
      "uri": "textures/Scepter_Gem_emissive.png"
    },
    {
      "uri": "textures/Scepter_Gem_normal.png"
    },
    {
      "uri": "textures/Scepter_Blade_baseColor.png"
    },
    {
      "uri": "textures/Scepter_Blade_metallicRoughness.png"
    },
    {
      "uri": "textures/Scepter_Blade_normal.png"
    },
    {
      "uri": "textures/Scepter_Handle_baseColor.png"
    },
    {
      "uri": "textures/Scepter_Handle_metallicRoughness.png"
    },
    {
      "uri": "textures/Scepter_Handle_normal.png"
    }
  ],
  "materials": [
    {
      "doubleSided": true,
      "name": "Scepter_Extra",
      "normalTexture": {
        "index": 2
      },
      "pbrMetallicRoughness": {
        "baseColorTexture": {
          "index": 0
        },
        "metallicRoughnessTexture": {
          "index": 1
        }
      }
    },
    {
      "doubleSided": true,
      "name": "Scepter_Container",
      "normalTexture": {
        "index": 5
      },
      "pbrMetallicRoughness": {
        "baseColorTexture": {
          "index": 3
        },
        "metallicRoughnessTexture": {
          "index": 4
        }
      }
    },
    {
      "doubleSided": true,
      "emissiveFactor": [
        1.0,
        1.0,
        1.0
      ],
      "emissiveTexture": {
        "index": 8
      },
      "name": "Scepter_Gem",
      "normalTexture": {
        "index": 9
      },
      "pbrMetallicRoughness": {
        "baseColorTexture": {
          "index": 6
        },
        "metallicRoughnessTexture": {
          "index": 7
        }
      }
    },
    {
      "doubleSided": true,
      "name": "Scepter_Blade",
      "normalTexture": {
        "index": 12
      },
      "pbrMetallicRoughness": {
        "baseColorTexture": {
          "index": 10
        },
        "metallicRoughnessTexture": {
          "index": 11
        }
      }
    },
    {
      "doubleSided": true,
      "name": "Scepter_Handle",
      "normalTexture": {
        "index": 15
      },
      "pbrMetallicRoughness": {
        "baseColorTexture": {
          "index": 13
        },
        "metallicRoughnessTexture": {
          "index": 14
        }
      }
    }
  ],
  "meshes": [
    {
      "name": "Parts9_pCube325_Scepter_Extra_0",
      "primitives": [
        {
          "attributes": {
            "NORMAL": 1,
            "POSITION": 0,
            "TANGENT": 2,
            "TEXCOORD_0": 3
          },
          "indices": 4,
          "material": 0,
          "mode": 4
        }
      ]
    },
    {
      "name": "Parts9_pCube325_Scepter_Container_0",
      "primitives": [
        {
          "attributes": {
            "NORMAL": 6,
            "POSITION": 5,
            "TANGENT": 7,
            "TEXCOORD_0": 8
          },
          "indices": 9,
          "material": 1,
          "mode": 4
        }
      ]
    },
    {
      "name": "Parts9_pCube325_Scepter_Gem_0",
      "primitives": [
        {
          "attributes": {
            "NORMAL": 11,
            "POSITION": 10,
            "TANGENT": 12,
            "TEXCOORD_0": 13
          },
          "indices": 14,
          "material": 2,
          "mode": 4
        }
      ]
    },
    {
      "name": "Parts9_pCube325_Scepter_Blade_0",
      "primitives": [
        {
          "attributes": {
            "NORMAL": 16,
            "POSITION": 15,
            "TANGENT": 17,
            "TEXCOORD_0": 18
          },
          "indices": 19,
          "material": 3,
          "mode": 4
        }
      ]
    },
    {
      "name": "Parts9_pCube325_Scepter_Handle_0",
      "primitives": [
        {
          "attributes": {
            "NORMAL": 21,
            "POSITION": 20,
            "TANGENT": 22,
            "TEXCOORD_0": 23
          },
          "indices": 24,
          "material": 4,
          "mode": 4
        }
      ]
    }
  ],
  "nodes": [
    {
      "children": [
        1
      ],
      "matrix": [
        1.0,
        0.0,
        0.0,
        0.0,
        0.0,
        2.220446049250313e-16,
        -1.0,
        0.0,
        0.0,
        1.0,
        2.220446049250313e-16,
        0.0,
        0.0,
        0.0,
        0.0,
        1.0
      ],
      "name": "Sketchfab_model"
    },
    {
      "children": [
        2
      ],
      "matrix": [
        0.009999999776482582,
        0.0,
        0.0,
        0.0,
        0.0,
        0.0,
        0.009999999776482582,
        0.0,
        0.0,
        -0.009999999776482582,
        0.0,
        0.0,
        0.0,
        0.0,
        0.0,
        1.0
      ],
      "name": "LokiScepter_mdl.fbx"
    },
    {
      "children": [
        3
      ],
      "name": "RootNode"
    },
    {
      "children": [
        4,
        5,
        6,
        7,
        8
      ],
      "matrix": [
        -2.220446049250313e-16,
        1.0,
        -1.1102230246251565e-16,
        0.0,
        1.1102230246251565e-16,
        0.0,
        1.0,
        0.0,
        1.0,
        1.1102230246251565e-16,
        -2.220446049250313e-16,
        0.0,
        0.20818378031253815,
        0.35338515043258667,
        -0.5615689158439636,
        1.0
      ],
      "name": "Parts9_pCube325"
    },
    {
      "mesh": 0,
      "name": "Parts9_pCube325_Scepter_Extra_0"
    },
    {
      "mesh": 1,
      "name": "Parts9_pCube325_Scepter_Container_0"
    },
    {
      "mesh": 2,
      "name": "Parts9_pCube325_Scepter_Gem_0"
    },
    {
      "mesh": 3,
      "name": "Parts9_pCube325_Scepter_Blade_0"
    },
    {
      "mesh": 4,
      "name": "Parts9_pCube325_Scepter_Handle_0"
    }
  ],
  "samplers": [
    {
      "magFilter": 9729,
      "minFilter": 9987,
      "wrapS": 10497,
      "wrapT": 10497
    }
  ],
  "scene": 0,
  "scenes": [
    {
      "name": "Sketchfab_Scene",
      "nodes": [
        0
      ]
    }
  ],
  "textures": [
    {
      "sampler": 0,
      "source": 0
    },
    {
      "sampler": 0,
      "source": 1
    },
    {
      "sampler": 0,
      "source": 2
    },
    {
      "sampler": 0,
      "source": 3
    },
    {
      "sampler": 0,
      "source": 4
    },
    {
      "sampler": 0,
      "source": 5
    },
    {
      "sampler": 0,
      "source": 6
    },
    {
      "sampler": 0,
      "source": 7
    },
    {
      "sampler": 0,
      "source": 8
    },
    {
      "sampler": 0,
      "source": 9
    },
    {
      "sampler": 0,
      "source": 10
    },
    {
      "sampler": 0,
      "source": 11
    },
    {
      "sampler": 0,
      "source": 12
    },
    {
      "sampler": 0,
      "source": 13
    },
    {
      "sampler": 0,
      "source": 14
    },
    {
      "sampler": 0,
      "source": 15
    }
  ]
}
