{
  "accessors": [
    {
      "bufferView": 2,
      "componentType": 5126,
      "count": 35424,
      "max": [
        1.0,
        0.45227599143981934,
        0.5436360239982605
      ],
      "min": [
        -1.0,
        -0.7684929966926575,
        -0.5436360239982605
      ],
      "type": "VEC3"
    },
    {
      "bufferView": 2,
      "byteOffset": 425088,
      "componentType": 5126,
      "count": 35424,
      "max": [
        0.9999442100524902,
        0.9999969005584717,
        0.9999367594718933
      ],
      "min": [
        -0.9999442100524902,
        -0.9999954700469971,
        -0.9997913837432861
      ],
      "type": "VEC3"
    },
    {
      "bufferView": 3,
      "componentType": 5126,
      "count": 35424,
      "max": [
        0.9999997615814209,
        0.9725294709205627,
        0.9999942183494568,
        1.0
      ],
      "min": [
        -0.9999783635139465,
        -0.9952975511550903,
        -0.9999547600746155,
        1.0
      ],
      "type": "VEC4"
    },
    {
      "bufferView": 1,
      "componentType": 5126,
      "count": 35424,
      "max": [
        0.9915069937705994,
        0.984798014163971
      ],
      "min": [
        0.008492999710142612,
        0.006364000029861927
      ],
      "type": "VEC2"
    },
    {
      "bufferView": 0,
      "componentType": 5125,
      "count": 210930,
      "type": "SCALAR"
    },
    {
      "bufferView": 2,
      "byteOffset": 850176,
      "componentType": 5126,
      "count": 11667,
      "max": [
        0.26034998893737793,
        0.7684929966926575,
        0.5220569968223572
      ],
      "min": [
        -0.26016300916671753,
        -0.10962600260972977,
        -0.22500500082969666
      ],
      "type": "VEC3"
    },
    {
      "bufferView": 2,
      "byteOffset": 990180,
      "componentType": 5126,
      "count": 11667,
      "max": [
        1.0,
        0.999984860420227,
        1.0
      ],
      "min": [
        -0.9998918771743774,
        -0.9999016523361206,
        -0.9998056292533875
      ],
      "type": "VEC3"
    },
    {
      "bufferView": 3,
      "byteOffset": 566784,
      "componentType": 5126,
      "count": 11667,
      "max": [
        0.9999594688415527,
        0.7761995792388916,
        0.9999454617500305,
        1.0
      ],
      "min": [
        -0.9998728036880493,
        -0.7826589345932007,
        -0.9999397993087769,
        1.0
      ],
      "type": "VEC4"
    },
    {
      "bufferView": 1,
      "byteOffset": 283392,
      "componentType": 5126,
      "count": 11667,
      "max": [
        0.9872609972953796,
        0.9940140247344971
      ],
      "min": [
        0.012738999910652637,
        0.008913000114262104
      ],
      "type": "VEC2"
    },
    {
      "bufferView": 0,
      "byteOffset": 843720,
      "componentType": 5125,
      "count": 68982,
      "type": "SCALAR"
    }
  ],
  "asset": {
    "extras": {
      "author": "Chris Arthur (https://sketchfab.com/Loblegonst)",
      "license": "CC-BY-4.0 (http://creativecommons.org/licenses/by/4.0/)",
      "source": "https://sketchfab.com/3d-models/thanos-5eb3e1b92d8946e3913a4e836393ea3d",
      "title": "Thanos"
    },
    "generator": "Sketchfab-12.66.0",
    "version": "2.0"
  },
  "bufferViews": [
    {
      "buffer": 0,
      "byteLength": 1119648,
      "name": "floatBufferViews",
      "target": 34963
    },
    {
      "buffer": 0,
      "byteLength": 376728,
      "byteOffset": 1119648,
      "byteStride": 8,
      "name": "floatBufferViews",
      "target": 34962
    },
    {
      "buffer": 0,
      "byteLength": 1130184,
      "byteOffset": 1496376,
      "byteStride": 12,
      "name": "floatBufferViews",
      "target": 34962
    },
    {
      "buffer": 0,
      "byteLength": 753456,
      "byteOffset": 2626560,
      "byteStride": 16,
      "name": "floatBufferViews",
      "target": 34962
    }
  ],
  "buffers": [
    {
      "byteLength": 3380016,
      "uri": "scene.bin"
    }
  ],
  "images": [
    {
      "uri": "textures/ThanosEyes1_ThanosEyes1_lambert2SG_baseColor.jpeg"
    },
    {
      "uri": "textures/ThanosEyes1_ThanosEyes1_lambert2SG_metallicRoughness.png"
    },
    {
      "uri": "textures/ThanosEyes1_ThanosEyes1_lambert2SG_normal.png"
    },
    {
      "uri": "textures/ThanosLowpoly_lambert5SG_baseColor.jpeg"
    },
    {
      "uri": "textures/ThanosLowpoly_lambert5SG_metallicRoughness.png"
    },
    {
      "uri": "textures/ThanosLowpoly_lambert5SG_normal.png"
    }
  ],
  "materials": [
    {
      "doubleSided": true,
      "name": "ThanosEyes1_ThanosEyes1_lambert2SG",
      "normalTexture": {
        "index": 2
      },
      "occlusionTexture": {
        "index": 1
      },
      "pbrMetallicRoughness": {
        "baseColorTexture": {
          "index": 0
        },
        "metallicRoughnessTexture": {
          "index": 1
        },
        "roughnessFactor": 0.8858612805
      }
    },
    {
      "doubleSided": true,
      "name": "ThanosLowpoly_lambert5SG",
      "normalTexture": {
        "index": 5
      },
      "occlusionTexture": {
        "index": 4
      },
      "pbrMetallicRoughness": {
        "baseColorTexture": {
          "index": 3
        },
        "metallicRoughnessTexture": {
          "index": 4
        }
      }
    }
  ],
  "meshes": [
    {
      "name": "defaultMaterial",
      "primitives": [
        {
          "attributes": {
            "NORMAL": 1,
            "POSITION": 0,
            "TANGENT": 2,
            "TEXCOORD_0": 3
          },
          "indices": 4,
          "material": 1,
          "mode": 4
        }
      ]
    },
    {
      "name": "defaultMaterial",
      "primitives": [
        {
          "attributes": {
            "NORMAL": 6,
            "POSITION": 5,
            "TANGENT": 7,
            "TEXCOORD_0": 8
          },
          "indices": 9,
          "material": 0,
          "mode": 4
        }
      ]
    }
  ],
  "nodes": [
    {
      "children": [
        1
      ],
      "matrix": [
        1.0,
        0.0,
        0.0,
        0.0,
        0.0,
        2.220446049250313e-16,
        -1.0,
        0.0,
        0.0,
        1.0,
        2.220446049250313e-16,
        0.0,
        0.0,
        2.3999999765322888e-09,
        -1.51999994812968e-08,
        1.0
      ],
      "name": "Sketchfab_model"
    },
    {
      "children": [
        2,
        4
      ],
      "matrix": [
        1.0,
        0.0,
        0.0,
        0.0,
        0.0,
        -4.371139006309477e-08,
        0.999999999999999,
        0.0,
        0.0,
        -0.999999999999999,
        -4.371139006309477e-08,
        0.0,
        0.0,
        0.0,
        0.0,
        1.0
      ],
      "name": "Collada visual scene group"
    },
    {
      "children": [
        3
      ],
      "name": "g"
    },
    {
      "mesh": 0,
      "name": "defaultMaterial"
    },
    {
      "children": [
        5
      ],
      "name": "g"
    },
    {
      "mesh": 1,
      "name": "defaultMaterial"
    }
  ],
  "samplers": [
    {
      "magFilter": 9729,
      "minFilter": 9987,
      "wrapS": 10497,
      "wrapT": 10497
    }
  ],
  "scene": 0,
  "scenes": [
    {
      "name": "Sketchfab_Scene",
      "nodes": [
        0
      ]
    }
  ],
  "textures": [
    {
      "sampler": 0,
      "source": 0
    },
    {
      "sampler": 0,
      "source": 1
    },
    {
      "sampler": 0,
      "source": 2
    },
    {
      "sampler": 0,
      "source": 3
    },
    {
      "sampler": 0,
      "source": 4
    },
    {
      "sampler": 0,
      "source": 5
    }
  ]
}
